PathFileType	4	(X/Y/Z)	C:/Users/beibeiliu/ov580/test_trc\sequence.28_training_dense_right.trc
DataRate	CameraRate	NumFrames	NumMarkers	Units	OrigDataRate	OrigDataStartFrame	OrigNumFrames
120	120	10	19	mm	120	1	110
Frame#	Time	ThumbCMC			ThumbMCP			ThumbIP			ThumbTip			IndexMCP			IndexPIP			IndexTip			MiddleMCP			MiddlePIP			MiddleTip			RingMCP			RingPIP			RingTip			PinkyMCP			PinkyPIP			PinkyTip			BackHand1			BackHand2			BackHand3	
		X0	Y0	Z0	X1	Y1	Z1	X2	Y2	Z2	X3	Y3	Z3	X4	Y4	Z4	X5	Y5	Z5	X6	Y6	Z6	X7	Y7	Z7	X8	Y8	Z8	X9	Y9	Z9	X10	Y10	Z10	X11	Y11	Z11	X12	Y12	Z12	X13	Y13	Z13	X14	Y14	Z14	X15	Y15	Z15	X16	Y16	Z16	X17	Y17	Z17	X18	Y18	Z18	
0	0	35.4358	45.5664	27.5666	12.6311	28.9702	11.5556	4.45004	18.9868	-9.65017	-0.13875	9.44267	-27.2363	28.5023	48.415	-40.6261	22.0126	34.3237	-63.6837	13.7933	21.7872	-77.8968	51.2127	46.647	-50.5434	43.125	35.7351	-72.5224	42.0736	17.8965	-93.902	68.2589	40.5202	-47.4797	64.7976	29.1942	-68.724	62.9844	15.4139	-87.0027	86.5194	35.2113	-38.0783	88.2861	26.3224	-54.8535	90.808	19.6579	-70.0823	75.3532	59.0315	-4.69805	79.3978	66.3852	21.889	52.534	66.1887	13.3146	
1	0.00833333	33.7539	44.3912	22.7832	18.1723	28.6541	11.3265	7.86501	18.3825	-12.2037	-0.54254	7.08051	-25.7513	30.34	47.1526	-40.6863	21.5049	35.6002	-63.9633	18.6549	18.7665	-81.2548	49.7532	46.2935	-49.1025	43.8628	33.2765	-76.1097	43.1287	16.6648	-96.0164	67.4344	39.5962	-49.4557	71.3984	28.776	-66.8013	63.2693	14.7178	-86.5541	87.7151	34.0693	-36.9601	90.5591	25.0464	-56.1115	88.2685	17.2635	-73.3492	76.7037	56.9045	-4.53671	81.1547	63.6313	21.4011	53.0095	65.8615	10.0208	
2	0.0166667	35.6488	44.1078	27.6844	20.6077	27.4037	8.26412	8.99562	16.9592	-11.6238	5.20182	7.08673	-28.1774	32.9156	46.7784	-41.5579	23.7133	37.2842	-61.1349	21.9438	20.9307	-79.6692	51.3904	44.7921	-54.3053	46.2277	33.5477	-76.2318	45.8277	14.9503	-97.1165	72.7752	38.8699	-48.5875	69.6777	28.6951	-66.471	66.3971	13.2599	-85.0846	90.2001	34.5073	-38.8159	93.0131	24.8631	-53.5982	91.9128	18.619	-70.2263	79.4666	56.4891	-6.12998	85.6757	63.6351	17.6622	57.4451	65.9287	10.5741	
3	0.025	36.6923	42.9879	24.9296	21.4322	25.7837	11.1264	12.8548	15.3508	-13.1228	6.99271	3.43569	-28.941	33.7409	46.4497	-39.5072	26.2245	33.2663	-64.3927	25.9681	18.3382	-80.899	58.4169	44.0484	-52.6877	52.9712	31.1176	-77.2695	51.7603	14.0168	-95.2729	73.6951	38.9409	-50.1051	72.9814	26.0985	-70.2431	67.6863	11.4406	-84.8157	92.7873	34.204	-37.3441	94.5295	25.5653	-51.6744	95.5384	15.8198	-73.3036	79.2386	58.0493	-5.7938	87.0278	61.7339	20.8934	55.3552	64.2331	7.99782	
4	0.0333333	37.8573	42.9739	24.7698	25.0695	25.2227	10.8559	15.4696	14.4844	-10.716	11.4453	2.34057	-28.7611	37.284	44.8224	-42.3884	28.8864	34.7352	-61.2741	28.8544	17.1815	-78.7287	56.8118	44.6964	-47.9014	53.3378	29.7926	-75.4691	51.4263	14.7529	-92.9896	76.2244	38.134	-43.8729	72.4718	24.8023	-68.9289	70.0709	10.0615	-85.3104	96.9036	33.0627	-33.5251	97.2916	23.4215	-55.1431	97.7222	13.5705	-71.7353	82.9453	56.734	-1.73855	92.273	62.9747	20.9013	63.8088	63.5495	11.5469	
5	0.0416667	39.6762	42.9933	24.8331	28.3376	25.7225	11.1473	19.5938	14.8821	-5.63001	14.0295	3.47518	-24.2901	35.7069	45.1428	-38.9223	33.725	32.8804	-62.087	23.2791	15.6742	-78.5743	60.3557	44.4548	-47.165	57.3598	32.279	-72.0724	52.0979	15.6822	-90.12	75.9038	37.9397	-45.984	77.3039	26.5003	-65.5232	69.945	12.4241	-80.0309	99.1912	32.0596	-35.6373	97.1465	25.2267	-50.4444	100.969	13.9822	-71.8073	87.687	55.5602	-4.00534	90.1846	62.2192	19.9108	63.8816	63.7128	8.88223	
6	0.05	42.3729	43.9846	26.9504	24.9149	26.9128	14.5575	14.942	14.9816	-6.23116	11.1543	2.40786	-22.2157	36.9571	45.9903	-37.7003	28.3154	34.0138	-59.7504	28.4234	17.1808	-76.3691	57.4825	45.8111	-46.4981	54.8529	32.9811	-69.9717	52.1591	14.5166	-89.4754	79.9832	38.3377	-44.7873	78.1309	26.285	-63.7641	73.3011	12.5217	-78.8937	96.6856	34.0395	-31.4194	100.624	22.8514	-50.2247	100.602	13.5678	-69.8051	84.9301	58.7254	0.653055	88.5597	63.8584	24.0301	61.9514	64.7262	11.5867	
7	0.0583333	42.3305	45.5419	33.0171	25.9858	28.2442	15.5442	17.1348	16.8673	-4.03805	12.1367	4.67219	-23.0235	35.7496	48.1226	-36.3075	32.2253	33.5324	-59.5404	26.7125	17.0245	-76.4488	60.1217	45.3021	-46.4613	55.8007	32.7507	-69.1727	55.3881	12.3348	-90.7235	81.3055	38.6375	-43.2943	79.8622	26.7684	-62.9939	71.653	15.0938	-77.1634	97.9393	36.0296	-28.368	98.7423	27.0431	-45.4425	102.731	17.7562	-65.8568	84.1257	60.6917	-1.75448	90.1506	66.3605	27.4098	60.8855	67.5956	16.5733	
8	0.0666667	45.3953	46.8754	29.1323	27.8198	29.4782	17.1137	21.1618	19.3308	-1.5075	14.4143	6.61642	-19.5644	39.593	48.5158	-35.9846	33.2844	37.1384	-57.0981	31.1388	22.0912	-72.0649	62.8856	47.9287	-43.6496	58.485	33.2056	-69.1611	56.0217	19.3174	-84.6981	80.5924	43.3694	-37.5163	79.3503	31.1389	-58.3702	75.2357	15.1798	-77.8864	101.003	37.6015	-28.0607	99.4855	28.0715	-45.7865	105.613	19.4726	-60.5708	90.152	62.1788	1.11131	93.9149	66.9734	25.9078	65.8308	68.1078	18.5378	
9	0.075	44.9877	50.482	35.4887	29.7556	31.0405	17.4842	22.0369	21.409	-0.603745	16.6533	9.37473	-20.8671	43.5977	52.4609	-34.9044	34.4103	42.0038	-52.5384	32.3276	22.4699	-71.9255	61.1748	51.7572	-44.3626	60.0695	37.4148	-67.5551	57.1356	23.4463	-84.471	83.5896	46.8771	-36.0861	80.6327	35.2815	-56.7446	76.6826	20.4489	-74.7726	105.135	40.7694	-26.3218	103.301	32.36	-43.6486	103.882	25.6633	-61.3426	86.9615	63.7963	6.56427	94.6676	69.3588	26.8688	69.0642	72.8996	20.3129	
